<svg width="42" height="42" viewBox="0 0 42 42" fill="none" xmlns="http://www.w3.org/2000/svg">
<path d="M5.25 10.5H10.5V5.25H5.25V10.5ZM14 5.25V10.5H19.25V5.25H14ZM22.75 5.25V10.5H28V5.25H22.75ZM31.5 5.25V10.5H36.75V5.25H31.5ZM36.75 14H31.5V19.25H36.75V14ZM36.75 22.75H31.5V28H36.75V22.75ZM28 28V22.75H22.75V28H28ZM19.25 28V22.75H14V28H19.25ZM10.5 28V22.75H5.25V28H10.5ZM5.25 19.25H10.5V14H5.25V19.25ZM22.75 14V19.25H28V14H22.75ZM14 14V19.25H19.25V14H14ZM5.25 1.75H36.75C37.6783 1.75 38.5685 2.11875 39.2249 2.77513C39.8813 3.4315 40.25 4.32174 40.25 5.25V28C40.25 28.9283 39.8813 29.8185 39.2249 30.4749C38.5685 31.1313 37.6783 31.5 36.75 31.5H26.25V36.75H31.5V40.25H22.75V31.5H19.25V40.25H10.5V36.75H15.75V31.5H5.25C4.32174 31.5 3.4315 31.1313 2.77513 30.4749C2.11875 29.8185 1.75 28.9283 1.75 28V5.25C1.75 4.32174 2.11875 3.4315 2.77513 2.77513C3.4315 2.11875 4.32174 1.75 5.25 1.75V1.75Z" fill="#7D836F"/>
</svg>
